<svg width="534" height="33" viewBox="0 0 534 33" fill="none" xmlns="http://www.w3.org/2000/svg">
<path d="M526.768 27.9433H533.782V31.6589H518.564V31.5754V26.6074V6.77709V1.80908V1.72559H533.782V5.46203H526.768H522.614V14.2082H527.373H532.842H532.926V17.9447H532.842H527.373H522.614V27.9433H526.768Z" fill="#f0f3f8"/>
<path d="M497.211 9.01049C497.211 4.20947 500.718 1.34973 505.644 1.34973C508.838 1.34973 511.927 2.5813 513.242 3.87548V9.55321H513.2C511.447 6.56823 508.17 5.19055 505.561 5.19055C502.555 5.19055 501.281 7.06921 501.281 8.86437C501.281 11.0144 502.701 12.6426 504.955 13.8741L507.481 15.2936C510.654 17.047 513.764 19.0091 513.848 23.7058C513.931 28.4024 510.696 32.0345 505.394 32.0345C502.346 32.0345 499.277 30.8447 497.566 29.0078V23.1839H497.649C499.152 26.1898 502.346 28.1937 505.31 28.1937C508.17 28.1937 509.798 26.3568 509.798 24.1441C509.798 21.9524 508.295 20.5538 505.602 18.9674L503.327 17.6314C501.281 16.4416 497.211 14.1664 497.211 9.01049Z" fill="#f0f3f8"/>
<path d="M472.769 6.77709V1.80908V1.72559H476.818V1.80908V6.77709V21.6185C476.818 25.6263 479.302 28.2356 482.725 28.2356C486.107 28.2356 488.57 25.6263 488.57 21.6185V6.77709V1.80908V1.72559H492.641V1.80908V6.77709V21.869C492.641 27.9016 488.487 31.9511 482.725 31.9511C476.943 31.9511 472.769 27.9016 472.769 21.869V6.77709Z" fill="#f0f3f8"/>
<path d="M452.292 32.2214C443.483 32.2214 436.824 25.5418 436.824 16.7329C436.824 7.92412 443.483 1.30707 452.292 1.30707C461.142 1.30707 467.822 7.92412 467.822 16.7329C467.822 25.5418 461.142 32.2214 452.292 32.2214ZM441.103 16.7329C441.103 23.3291 445.925 28.2763 452.292 28.2345C458.7 28.2763 463.543 23.3291 463.543 16.7329C463.543 10.1994 458.7 5.23138 452.292 5.27313C445.925 5.23138 441.103 10.1994 441.103 16.7329Z" fill="#f0f3f8"/>
<path d="M411.442 6.77709V1.80908V1.72559H415.492V1.80908V6.77709V14.2082H427.682V6.77709V1.80908V1.72559H431.753V1.80908V6.77709V26.6074V31.5754V31.6589H427.682V31.5754V26.6074V17.9447H415.492V26.6074V31.5754V31.6589H411.442V31.5754V26.6074V6.77709Z" fill="#f0f3f8"/>
<path d="M389.463 27.9433H396.477V31.6589H381.26V31.5754V26.6074V6.77709V1.80908V1.72559H396.477V5.46203H389.463H385.309V14.2082H390.069H395.538H395.621V17.9447H395.538H390.069H385.309V27.9433H389.463Z" fill="#f0f3f8"/>
<path d="M363.267 32.3477L349.198 1.80908V1.72559H353.686C354.417 3.43725 356.462 8.11303 357.36 10.0334L363.622 23.9355L368.528 12.9767C369.759 10.2422 372.347 4.4392 373.537 1.72559H377.796V1.80908L363.601 32.3477H363.267Z" fill="#f0f3f8"/>
<path d="M341.643 6.77709V1.80908V1.72559H345.692V1.80908V6.77709V26.6074V31.5754V31.6589H341.643V31.5754V26.6074V6.77709Z" fill="#f0f3f8"/>
<path d="M317.492 5.44116V1.72559H337.364V5.44116H337.281L329.453 5.46203V26.6074V31.5754V31.6589H325.403V31.5754V26.6074V5.44116H317.576H317.492Z" fill="#f0f3f8"/>
<path d="M291.067 31.6586V31.5751L305.262 1.05737H305.617L319.665 31.5751V31.6586H315.177C314.238 29.4669 313.173 27.0664 311.754 23.9144H298.791C297.705 26.3775 296.369 29.3416 295.388 31.6586H291.067ZM300.461 20.1988H310.084L305.241 9.49047L300.461 20.1988Z" fill="#f0f3f8"/>
<path d="M281.403 27.9433H288.416V31.6589H273.199V31.5754V26.6074V6.77709V1.80908V1.72559H288.416V5.46203H281.403H277.249V14.2082H282.008H287.477H287.561V17.9447H287.477H282.008H277.249V27.9433H281.403Z" fill="#f0f3f8"/>
<path d="M253.516 26.6074V31.5754V31.6589H249.467V31.5754V26.6074V6.77709V1.80908V1.72559H257.754C262.931 1.72559 266.145 4.41833 266.145 9.21935C266.145 12.3922 264.246 15.1476 261.073 15.8782C261.949 16.6087 262.68 17.8403 263.515 19.552L266.333 25.4593C267.961 28.8409 269.026 30.5526 270.174 31.5754V31.6589H264.809L259.674 20.9297C258.171 17.7777 256.814 17.0888 254.811 17.0888H253.516V26.6074ZM253.516 13.582H257.336C260.363 13.582 261.991 12.0791 261.991 9.63683C261.991 6.65185 260.363 5.46203 257.336 5.46203H253.516V13.582Z" fill="#f0f3f8"/>
<path d="M235.879 32.1815C227.07 32.1815 220.411 25.5018 220.411 16.693C220.411 7.88415 227.07 1.22534 235.879 1.22534C238.968 1.22534 241.786 2.03943 244.145 3.6676V8.57299H244.04C242.078 6.44384 239.177 5.14965 235.67 5.14965C230.452 5.14965 224.69 9.17833 224.69 16.693C224.69 23.7066 229.951 28.111 235.879 28.1945C239.177 28.2363 242.078 26.963 244.04 24.813H244.145V29.6557C241.786 31.3674 238.968 32.1815 235.879 32.1815Z" fill="#f0f3f8"/>
<path d="M205.32 21.7855C199.287 21.7855 194.716 17.1723 194.716 11.1398C194.716 5.10717 199.287 0.535767 205.32 0.535767C211.394 0.535767 215.966 5.10717 215.966 11.1398C215.966 17.1723 211.394 21.7855 205.32 21.7855ZM197.116 11.1398C197.116 16.0034 200.581 19.6563 205.32 19.5937C210.1 19.6563 213.565 16.0034 213.565 11.1398C213.565 6.31786 210.1 2.66491 205.32 2.66491C200.581 2.66491 197.116 6.31786 197.116 11.1398ZM201.521 16.7757V16.7131V14.2082V7.59118V5.0863V5.02367H205.842C208.096 5.02367 209.599 6.25524 209.599 8.48876C209.599 9.76207 208.889 10.9519 207.658 11.432C208.013 11.7034 208.284 12.0791 208.534 12.6009L209.724 15.0223C210.1 15.8364 210.622 16.4 211.144 16.6922V16.7757H207.929L206.384 13.6238C205.654 12.1208 205.195 12.0373 204.589 12.0373H203.859V14.2082V16.7131V16.7757H201.521ZM203.859 9.94994H205.842C206.781 9.94994 207.24 9.42809 207.24 8.65575C207.24 7.63292 206.781 7.25719 205.842 7.25719H203.859V9.94994Z" fill="#f0f3f8"/>
<path d="M164.574 31.6596V31.5761V26.6081V1.14178H164.825L177.119 15.8579L189.059 1.14178H189.414V26.6081V31.5761V31.6596H185.344V31.5761V26.6081V11.8501L177.057 21.5357H176.973L168.624 11.8084V26.6081V31.5761V31.6596H164.574Z" fill="#f0f3f8"/>
<path d="M143.973 32.2214C135.164 32.2214 128.505 25.5418 128.505 16.7329C128.505 7.92412 135.164 1.30707 143.973 1.30707C152.823 1.30707 159.503 7.92412 159.503 16.7329C159.503 25.5418 152.823 32.2214 143.973 32.2214ZM132.784 16.7329C132.784 23.3291 137.606 28.2763 143.973 28.2345C150.381 28.2763 155.224 23.3291 155.224 16.7329C155.224 10.1994 150.381 5.23138 143.973 5.27313C137.606 5.23138 132.784 10.1994 132.784 16.7329Z" fill="#f0f3f8"/>
<path d="M108.676 32.2214C99.8668 32.2214 93.208 25.5418 93.208 16.7329C93.208 7.92412 99.8668 1.30707 108.676 1.30707C117.526 1.30707 124.206 7.92412 124.206 16.7329C124.206 25.5418 117.526 32.2214 108.676 32.2214ZM97.4872 16.7329C97.4872 23.3291 102.309 28.2763 108.676 28.2345C115.084 28.2763 119.927 23.3291 119.927 16.7329C119.927 10.1994 115.084 5.23138 108.676 5.27313C102.309 5.23138 97.4872 10.1994 97.4872 16.7329Z" fill="#f0f3f8"/>
<path d="M86.1744 27.9433H93.1046H93.1881V31.6589H76.3428V31.5754V26.6074V6.77709V1.80908V1.72559H80.3923V1.80908V6.77709V27.9433H86.1744Z" fill="#f0f3f8"/>
<path d="M54.6143 6.77709V1.80908V1.72559H62.9012C68.5581 1.72559 72.044 4.73144 72.044 10.1169C72.044 14.8971 68.5581 18.3622 62.9012 18.3622H58.6638V26.6074V31.5754V31.6589H54.6143V31.5754V26.6074V6.77709ZM58.6638 14.8553H62.9012C65.9906 14.8553 67.911 12.8514 67.911 10.2422C67.911 7.02758 65.9906 5.46203 62.9012 5.46203H58.6638V14.8553Z" fill="#f0f3f8"/>
<path d="M22.6777 31.6586V31.5751L36.872 1.05737H37.2269L51.2751 31.5751V31.6586H46.7872C45.8479 29.4669 44.7833 27.0664 43.3639 23.9144H30.4011C29.3157 26.3775 27.9797 29.3416 26.9987 31.6586H22.6777ZM32.071 20.1988H41.6939L36.8512 9.49047L32.071 20.1988Z" fill="#f0f3f8"/>
<path d="M16.2073 31.6589L4.26733 15.9408V26.6074V31.5754V31.6589H0.217773V31.5754V26.6074V6.77709V1.80908V1.72559H4.26733V1.80908V6.77709V15.1476L10.5087 8.40526C13.9946 4.64794 14.9757 3.58337 16.6665 1.72559H21.551V1.80908C20.1733 3.27026 19.5888 3.91736 17.3136 6.40136L8.88048 15.5859L21.1961 31.5754V31.6589H16.2073Z" fill="#f0f3f8"/>
</svg>
